<?xml version="1.0" standalone="no"?>
<!DOCTYPE svg PUBLIC "-//W3C//DTD SVG 20010904//EN" "http://www.w3.org/TR/2001/REC-SVG-20010904/DTD/svg10.dtd">
<svg xmlns="http://www.w3.org/2000/svg" version="1.0" width="1280.000000pt" height="1280.000000pt" viewBox="0 0 1280.000000 1280.000000" preserveAspectRatio="xMidYMid meet">
<metadata>
Created by potrace 1.16, written by Peter Selinger 2001-2019
<meta name="Producer" content="Online-Convert"/></metadata>
<g transform="translate(0.000000,1280.000000) scale(0.100000,-0.100000)" fill="#000000" stroke="none">
<path d="M915 5685 c0 -962 1 -1355 2 -872 2 483 2 1271 0 1750 -1 480 -2 85 -2 -878z"/>
<path d="M3645 5685 c0 -962 1 -1355 2 -872 2 483 2 1271 0 1750 -1 480 -2 85 -2 -878z"/>
<path d="M5535 5350 l0 -2075 1105 0 1105 0 -1102 2 -1103 3 -3 2073 -2 2072 0 -2075z"/>
<path d="M6375 5685 c0 -962 1 -1355 2 -872 2 483 2 1271 0 1750 -1 480 -2 85 -2 -878z"/>
<path d="M8265 5350 l0 -2075 420 0 420 0 0 2075 0 2075 -2 -2072 -3 -2073 -415 0 -415 0 -3 2073 -2 2072 0 -2075z"/>
<path d="M10247 6753 l553 -3 2 -1738 3 -1737 420 0 420 0 3 1737 2 1738 553 3 552 2 -557 3 -558 2 0 -1740 0 -1740 -415 0 -415 0 0 1740 0 1740 -557 -2 -558 -3 552 -2z"/>
<path d="M2282 3613 l-2 -333 -1102 -3 -1103 -2 1103 -3 c878 -2 1104 1 1107 11 3 7 4 158 2 337 l-2 325 -3 -332z"/>
<path d="M5012 3613 l-2 -333 -1102 -3 -1103 -2 1103 -3 c878 -2 1104 1 1107 11 3 7 4 158 2 337 l-2 325 -3 -332z"/>
</g>
</svg>
