<svg xmlns="http://www.w3.org/2000/svg" xmlns:xlink="http://www.w3.org/1999/xlink" width="1472" zoomAndPan="magnify" viewBox="0 0 1104 623.999998" height="832" preserveAspectRatio="xMidYMid meet" version="1.2"><defs/><g id="322b5c21ca"><g style="fill:#000000;fill-opacity:1;"><g transform="translate(7.576173, 468.450373)"><path style="stroke:none" d="M 90.703125 -50.84375 L 225.078125 -50.84375 L 225.078125 0 L 27.421875 0 L 27.421875 -307.125 L 90.703125 -307.125 Z M 90.703125 -50.84375 "/></g><g transform="translate(241.501786, 468.450373)"><path style="stroke:none" d="M 90.703125 -50.84375 L 225.078125 -50.84375 L 225.078125 0 L 27.421875 0 L 27.421875 -307.125 L 90.703125 -307.125 Z M 90.703125 -50.84375 "/></g><g transform="translate(475.4274, 468.450373)"><path style="stroke:none" d="M 90.703125 -50.84375 L 225.078125 -50.84375 L 225.078125 0 L 27.421875 0 L 27.421875 -307.125 L 90.703125 -307.125 Z M 90.703125 -50.84375 "/></g><g transform="translate(709.353013, 468.450373)"><path style="stroke:none" d="M 94.71875 0 L 31.4375 0 L 31.4375 -307.125 L 94.71875 -307.125 Z M 94.71875 0 "/></g></g><g style="fill:#000000;fill-opacity:1;"><g transform="translate(829.163419, 468.450373)"><path style="stroke:none" d="M 258.609375 -255.875 L 164.53125 -255.875 L 164.53125 0 L 101.25 0 L 101.25 -255.875 L 8.4375 -255.875 L 8.4375 -307.125 L 258.609375 -307.125 Z M 258.609375 -255.875 "/></g></g></g></svg>