<svg xmlns="http://www.w3.org/2000/svg" xmlns:xlink="http://www.w3.org/1999/xlink" width="1366" zoomAndPan="magnify" viewBox="0 0 1024.5 576" height="768" preserveAspectRatio="xMidYMid meet" version="1.2"><defs><clipPath id="813e7da999"><path d="M 753 116 L 1024 116 L 1024 492 L 753 492 Z M 753 116 "/></clipPath></defs><g id="b6978c0428"><g style="fill:#ffffff;fill-opacity:1;"><g transform="translate(5.443468, 491.775216)"><path style="stroke:none" d="M 124.6875 -70.640625 L 244.578125 -70.640625 L 244.578125 0 L 33.1875 0 L 33.1875 -375.6875 L 124.6875 -375.6875 Z M 124.6875 -70.640625 "/></g></g><g style="fill:#ffffff;fill-opacity:1;"><g transform="translate(213.624583, 491.775216)"><path style="stroke:none" d="M 124.6875 -70.640625 L 244.578125 -70.640625 L 244.578125 0 L 33.1875 0 L 33.1875 -375.6875 L 124.6875 -375.6875 Z M 124.6875 -70.640625 "/></g></g><g style="fill:#ffffff;fill-opacity:1;"><g transform="translate(421.805698, 491.775216)"><path style="stroke:none" d="M 124.6875 -70.640625 L 244.578125 -70.640625 L 244.578125 0 L 33.1875 0 L 33.1875 -375.6875 L 124.6875 -375.6875 Z M 124.6875 -70.640625 "/></g></g><g style="fill:#ffffff;fill-opacity:1;"><g transform="translate(629.98679, 491.775216)"><path style="stroke:none" d="M 124.6875 -375.6875 L 124.6875 0 L 33.1875 0 L 33.1875 -375.6875 Z M 124.6875 -375.6875 "/></g></g><g clip-rule="nonzero" clip-path="url(#813e7da999)"><g style="fill:#ffffff;fill-opacity:1;"><g transform="translate(740.766919, 491.775216)"><path style="stroke:none" d="M 303.4375 -375.6875 L 303.4375 -302.375 L 203.90625 -302.375 L 203.90625 0 L 112.390625 0 L 112.390625 -302.375 L 12.84375 -302.375 L 12.84375 -375.6875 Z M 303.4375 -375.6875 "/></g></g></g></g></svg>