<svg xmlns="http://www.w3.org/2000/svg" xmlns:xlink="http://www.w3.org/1999/xlink" width="1366" zoomAndPan="magnify" viewBox="0 0 1024.5 576" height="768" preserveAspectRatio="xMidYMid meet" version="1.2"><defs/><g id="a3a9e41cde"><g style="fill:#ffffff;fill-opacity:1;"><g transform="translate(32.234267, 205.713971)"><path style="stroke:none" d="M 173.078125 -160.609375 L 119.09375 0 L 53.984375 0 L 0 -160.609375 L 53.53125 -160.609375 L 86.65625 -50.125 L 119.546875 -160.609375 Z M 173.078125 -160.609375 "/></g></g><g style="fill:#ffffff;fill-opacity:1;"><g transform="translate(185.350521, 205.713971)"><path style="stroke:none" d="M 61.703125 -160.609375 L 61.703125 0 L 11.34375 0 L 11.34375 -160.609375 Z M 61.703125 -160.609375 "/></g></g><g style="fill:#ffffff;fill-opacity:1;"><g transform="translate(238.430818, 205.713971)"><path style="stroke:none" d="M 74.171875 1.59375 C 54.972656 1.59375 39.132812 -2.90625 26.65625 -11.90625 C 14.175781 -20.90625 7.410156 -34.101562 6.359375 -51.5 L 59.890625 -51.5 C 60.640625 -42.269531 64.722656 -37.65625 72.140625 -37.65625 C 74.859375 -37.65625 77.160156 -38.296875 79.046875 -39.578125 C 80.941406 -40.867188 81.890625 -42.875 81.890625 -45.59375 C 81.890625 -49.375 79.847656 -52.4375 75.765625 -54.78125 C 71.679688 -57.125 65.332031 -59.804688 56.71875 -62.828125 C 46.425781 -66.460938 37.914062 -70.019531 31.1875 -73.5 C 24.457031 -76.976562 18.671875 -82.039062 13.828125 -88.6875 C 8.992188 -95.34375 6.65625 -103.890625 6.8125 -114.328125 C 6.8125 -124.765625 9.492188 -133.648438 14.859375 -140.984375 C 20.222656 -148.316406 27.554688 -153.875 36.859375 -157.65625 C 46.160156 -161.4375 56.632812 -163.328125 68.28125 -163.328125 C 87.9375 -163.328125 103.550781 -158.789062 115.125 -149.71875 C 126.695312 -140.644531 132.785156 -127.863281 133.390625 -111.375 L 79.171875 -111.375 C 79.015625 -115.914062 77.878906 -119.164062 75.765625 -121.125 C 73.648438 -123.09375 71.078125 -124.078125 68.046875 -124.078125 C 65.929688 -124.078125 64.191406 -123.359375 62.828125 -121.921875 C 61.472656 -120.492188 60.796875 -118.492188 60.796875 -115.921875 C 60.796875 -112.285156 62.796875 -109.296875 66.796875 -106.953125 C 70.804688 -104.609375 77.195312 -101.773438 85.96875 -98.453125 C 96.101562 -94.671875 104.457031 -91.039062 111.03125 -87.5625 C 117.613281 -84.082031 123.320312 -79.242188 128.15625 -73.046875 C 133 -66.847656 135.421875 -59.054688 135.421875 -49.671875 C 135.421875 -39.847656 133 -31.039062 128.15625 -23.25 C 123.320312 -15.457031 116.289062 -9.367188 107.0625 -4.984375 C 97.84375 -0.597656 86.878906 1.59375 74.171875 1.59375 Z M 74.171875 1.59375 "/></g></g><g style="fill:#ffffff;fill-opacity:1;"><g transform="translate(360.243296, 205.713971)"><path style="stroke:none" d="M 60.5625 -160.609375 L 60.5625 -70.09375 C 60.5625 -62.6875 62.1875 -56.828125 65.4375 -52.515625 C 68.695312 -48.203125 73.953125 -46.046875 81.203125 -46.046875 C 88.460938 -46.046875 93.832031 -48.203125 97.3125 -52.515625 C 100.789062 -56.828125 102.53125 -62.6875 102.53125 -70.09375 L 102.53125 -160.609375 L 152.671875 -160.609375 L 152.671875 -70.09375 C 152.671875 -54.820312 149.492188 -41.78125 143.140625 -30.96875 C 136.785156 -20.15625 128.085938 -12.023438 117.046875 -6.578125 C 106.003906 -1.128906 93.679688 1.59375 80.078125 1.59375 C 66.460938 1.59375 54.398438 -1.128906 43.890625 -6.578125 C 33.378906 -12.023438 25.175781 -20.113281 19.28125 -30.84375 C 13.382812 -41.582031 10.4375 -54.664062 10.4375 -70.09375 L 10.4375 -160.609375 Z M 60.5625 -160.609375 "/></g></g><g style="fill:#ffffff;fill-opacity:1;"><g transform="translate(503.378577, 205.713971)"><path style="stroke:none" d="M 114.328125 -24.265625 L 60.796875 -24.265625 L 52.859375 0 L 0 0 L 58.75 -160.609375 L 116.828125 -160.609375 L 175.34375 0 L 122.265625 0 Z M 102.078125 -62.15625 L 87.5625 -106.84375 L 73.046875 -62.15625 Z M 102.078125 -62.15625 "/></g></g><g style="fill:#ffffff;fill-opacity:1;"><g transform="translate(658.763171, 205.713971)"><path style="stroke:none" d="M 61.703125 -38.109375 L 110.25 -38.109375 L 110.25 0 L 11.34375 0 L 11.34375 -160.609375 L 61.703125 -160.609375 Z M 61.703125 -38.109375 "/></g></g><g style="fill:#ffffff;fill-opacity:1;"><g transform="translate(753.581775, 205.713971)"><path style="stroke:none" d="M 61.703125 -120.453125 L 61.703125 -100.71875 L 111.609375 -100.71875 L 111.609375 -62.828125 L 61.703125 -62.828125 L 61.703125 -40.15625 L 118.40625 -40.15625 L 118.40625 0 L 11.34375 0 L 11.34375 -160.609375 L 118.40625 -160.609375 L 118.40625 -120.453125 Z M 61.703125 -120.453125 "/></g></g><g style="fill:#ffffff;fill-opacity:1;"><g transform="translate(859.742392, 205.713971)"><path style="stroke:none" d="M 74.171875 1.59375 C 54.972656 1.59375 39.132812 -2.90625 26.65625 -11.90625 C 14.175781 -20.90625 7.410156 -34.101562 6.359375 -51.5 L 59.890625 -51.5 C 60.640625 -42.269531 64.722656 -37.65625 72.140625 -37.65625 C 74.859375 -37.65625 77.160156 -38.296875 79.046875 -39.578125 C 80.941406 -40.867188 81.890625 -42.875 81.890625 -45.59375 C 81.890625 -49.375 79.847656 -52.4375 75.765625 -54.78125 C 71.679688 -57.125 65.332031 -59.804688 56.71875 -62.828125 C 46.425781 -66.460938 37.914062 -70.019531 31.1875 -73.5 C 24.457031 -76.976562 18.671875 -82.039062 13.828125 -88.6875 C 8.992188 -95.34375 6.65625 -103.890625 6.8125 -114.328125 C 6.8125 -124.765625 9.492188 -133.648438 14.859375 -140.984375 C 20.222656 -148.316406 27.554688 -153.875 36.859375 -157.65625 C 46.160156 -161.4375 56.632812 -163.328125 68.28125 -163.328125 C 87.9375 -163.328125 103.550781 -158.789062 115.125 -149.71875 C 126.695312 -140.644531 132.785156 -127.863281 133.390625 -111.375 L 79.171875 -111.375 C 79.015625 -115.914062 77.878906 -119.164062 75.765625 -121.125 C 73.648438 -123.09375 71.078125 -124.078125 68.046875 -124.078125 C 65.929688 -124.078125 64.191406 -123.359375 62.828125 -121.921875 C 61.472656 -120.492188 60.796875 -118.492188 60.796875 -115.921875 C 60.796875 -112.285156 62.796875 -109.296875 66.796875 -106.953125 C 70.804688 -104.609375 77.195312 -101.773438 85.96875 -98.453125 C 96.101562 -94.671875 104.457031 -91.039062 111.03125 -87.5625 C 117.613281 -84.082031 123.320312 -79.242188 128.15625 -73.046875 C 133 -66.847656 135.421875 -59.054688 135.421875 -49.671875 C 135.421875 -39.847656 133 -31.039062 128.15625 -23.25 C 123.320312 -15.457031 116.289062 -9.367188 107.0625 -4.984375 C 97.84375 -0.597656 86.878906 1.59375 74.171875 1.59375 Z M 74.171875 1.59375 "/></g></g></g></svg>