<svg xmlns="http://www.w3.org/2000/svg" xmlns:xlink="http://www.w3.org/1999/xlink" width="1280" zoomAndPan="magnify" viewBox="0 0 960 959.999988" height="1280" preserveAspectRatio="xMidYMid meet" version="1.2"><g id="065effb05a"><path style=" stroke:none;fill-rule:nonzero;fill:#ffffff;fill-opacity:1;" d="M 770.738281 974.625 L 188.953125 974.625 C 156.328125 974.625 129.144531 947.4375 129.144531 914.816406 L 129.144531 167.195312 C 129.144531 134.570312 156.328125 107.386719 188.953125 107.386719 L 246.042969 107.386719 C 256.917969 107.386719 266.433594 116.902344 266.433594 127.773438 C 266.433594 138.648438 256.917969 148.164062 246.042969 148.164062 L 188.953125 148.164062 C 178.078125 148.164062 169.921875 156.320312 169.921875 167.195312 L 169.921875 914.816406 C 169.921875 925.691406 178.078125 933.84375 188.953125 933.84375 L 770.738281 933.84375 C 781.613281 933.84375 789.769531 925.691406 789.769531 914.816406 L 789.769531 167.195312 C 789.769531 156.320312 781.613281 148.164062 770.738281 148.164062 L 713.648438 148.164062 C 702.773438 148.164062 693.257812 138.648438 693.257812 127.773438 C 693.257812 116.902344 702.773438 107.386719 713.648438 107.386719 L 770.738281 107.386719 C 803.359375 107.386719 830.546875 134.570312 830.546875 167.195312 L 830.546875 914.816406 C 830.546875 948.796875 803.359375 974.625 770.738281 974.625 Z M 770.738281 974.625 "/><path style=" stroke:none;fill-rule:nonzero;fill:#ffffff;fill-opacity:1;" d="M 613.058594 231.082031 L 346.632812 231.082031 C 326.242188 231.082031 308.574219 214.769531 308.574219 193.023438 L 308.574219 92.433594 C 308.574219 72.042969 324.882812 54.371094 346.632812 54.371094 L 407.800781 54.371094 C 417.316406 23.109375 445.863281 0 479.84375 0 C 513.828125 0 543.734375 23.109375 551.890625 54.371094 L 611.699219 54.371094 C 632.089844 54.371094 649.757812 70.683594 649.757812 92.433594 L 649.757812 193.023438 C 651.117188 214.769531 633.449219 231.082031 613.058594 231.082031 Z M 349.351562 190.304688 L 608.980469 190.304688 L 608.980469 95.152344 L 534.21875 95.152344 C 523.34375 95.152344 513.828125 85.636719 513.828125 74.761719 C 513.828125 55.730469 498.875 40.78125 479.84375 40.78125 C 460.816406 40.78125 445.863281 55.730469 445.863281 74.761719 C 445.863281 85.636719 436.347656 95.152344 425.472656 95.152344 L 349.351562 95.152344 Z M 349.351562 190.304688 "/><path style=" stroke:none;fill-rule:nonzero;fill:#ffffff;fill-opacity:1;" d="M 396.929688 645.671875 L 259.636719 645.671875 L 259.636719 508.382812 L 396.929688 508.382812 Z M 300.417969 604.894531 L 356.148438 604.894531 L 356.148438 549.160156 L 300.417969 549.160156 Z M 300.417969 604.894531 "/><path style=" stroke:none;fill-rule:nonzero;fill:#ffffff;fill-opacity:1;" d="M 679.664062 596.738281 L 475.769531 596.738281 C 464.894531 596.738281 455.378906 587.222656 455.378906 576.347656 C 455.378906 565.472656 464.894531 555.957031 475.769531 555.957031 L 679.664062 555.957031 C 690.539062 555.957031 700.054688 565.472656 700.054688 576.347656 C 700.054688 587.222656 690.539062 596.738281 679.664062 596.738281 Z M 679.664062 596.738281 "/><path style=" stroke:none;fill-rule:nonzero;fill:#ffffff;fill-opacity:1;" d="M 396.929688 848.210938 L 259.636719 848.210938 L 259.636719 710.917969 L 396.929688 710.917969 Z M 300.417969 807.429688 L 356.148438 807.429688 L 356.148438 751.699219 L 300.417969 751.699219 Z M 300.417969 807.429688 "/><path style=" stroke:none;fill-rule:nonzero;fill:#ffffff;fill-opacity:1;" d="M 655.195312 800.632812 L 475.769531 800.632812 C 464.894531 800.632812 455.378906 791.117188 455.378906 780.242188 C 455.378906 769.367188 464.894531 759.855469 475.769531 759.855469 L 655.195312 759.855469 C 666.070312 759.855469 675.585938 769.367188 675.585938 780.242188 C 675.585938 791.117188 667.429688 800.632812 655.195312 800.632812 Z M 655.195312 800.632812 "/><path style=" stroke:none;fill-rule:nonzero;fill:#ffffff;fill-opacity:1;" d="M 396.929688 443.136719 L 259.636719 443.136719 L 259.636719 305.84375 L 396.929688 305.84375 Z M 300.417969 402.355469 L 356.148438 402.355469 L 356.148438 346.625 L 300.417969 346.625 Z M 300.417969 402.355469 "/><path style=" stroke:none;fill-rule:nonzero;fill:#ffffff;fill-opacity:1;" d="M 679.664062 354.78125 L 475.769531 354.78125 C 464.894531 354.78125 455.378906 345.265625 455.378906 334.390625 C 455.378906 323.515625 464.894531 314 475.769531 314 L 679.664062 314 C 690.539062 314 700.054688 323.515625 700.054688 334.390625 C 700.054688 345.265625 690.539062 354.78125 679.664062 354.78125 Z M 679.664062 354.78125 "/><path style=" stroke:none;fill-rule:nonzero;fill:#ffffff;fill-opacity:1;" d="M 626.652344 433.621094 L 475.769531 433.621094 C 464.894531 433.621094 455.378906 424.105469 455.378906 413.230469 C 455.378906 402.355469 464.894531 392.839844 475.769531 392.839844 L 626.652344 392.839844 C 637.527344 392.839844 647.039062 402.355469 647.039062 413.230469 C 647.039062 424.105469 637.527344 433.621094 626.652344 433.621094 Z M 626.652344 433.621094 "/></g></svg>