<svg xmlns="http://www.w3.org/2000/svg" xmlns:xlink="http://www.w3.org/1999/xlink" width="1280" zoomAndPan="magnify" viewBox="0 0 960 959.999988" height="1280" preserveAspectRatio="xMidYMid meet" version="1.2"><g id="4672056700"><path style=" stroke:none;fill-rule:nonzero;fill:#ffffff;fill-opacity:1;" d="M 727.003906 960 L 235.542969 960 C 105.675781 960 1.273438 855.597656 1.273438 725.730469 L 1.273438 234.269531 C 1.273438 104.402344 105.675781 0 235.542969 0 L 724.457031 0 C 854.324219 0 958.726562 104.402344 958.726562 234.269531 L 958.726562 723.183594 C 958.726562 853.050781 854.324219 957.453125 724.457031 957.453125 Z M 235.542969 76.394531 C 148.964844 76.394531 77.664062 147.691406 77.664062 234.269531 L 77.664062 723.183594 C 77.664062 809.761719 148.964844 881.0625 235.542969 881.0625 L 724.457031 881.0625 C 811.035156 881.0625 882.335938 809.761719 882.335938 723.183594 L 882.335938 234.269531 C 882.335938 147.691406 811.035156 76.394531 724.457031 76.394531 Z M 235.542969 76.394531 "/><path style=" stroke:none;fill-rule:nonzero;fill:#ffffff;fill-opacity:1;" d="M 482.546875 789.390625 C 314.484375 789.390625 179.523438 654.429688 179.523438 486.367188 C 179.523438 318.300781 314.484375 183.34375 482.546875 183.34375 C 650.609375 183.34375 785.570312 318.300781 785.570312 486.367188 C 785.570312 654.429688 650.609375 789.390625 482.546875 789.390625 Z M 482.546875 257.1875 C 355.226562 257.1875 253.367188 359.046875 253.367188 486.367188 C 253.367188 613.6875 355.226562 715.542969 482.546875 715.542969 C 609.867188 715.542969 711.722656 613.6875 711.722656 486.367188 C 711.722656 359.046875 609.867188 257.1875 482.546875 257.1875 Z M 482.546875 257.1875 "/><path style=" stroke:none;fill-rule:nonzero;fill:#ffffff;fill-opacity:1;" d="M 482.546875 623.871094 C 406.152344 623.871094 345.039062 562.757812 345.039062 486.367188 C 345.039062 409.972656 406.152344 348.859375 482.546875 348.859375 C 558.9375 348.859375 620.054688 409.972656 620.054688 486.367188 C 620.054688 562.757812 558.9375 623.871094 482.546875 623.871094 Z M 482.546875 425.253906 C 449.441406 425.253906 421.433594 453.261719 421.433594 486.367188 C 421.433594 519.46875 449.441406 547.480469 482.546875 547.480469 C 515.648438 547.480469 543.660156 519.46875 543.660156 486.367188 C 543.660156 453.261719 515.648438 425.253906 482.546875 425.253906 Z M 482.546875 425.253906 "/><path style=" stroke:none;fill-rule:nonzero;fill:#ffffff;fill-opacity:1;" d="M 811.035156 201.167969 C 811.035156 202.835938 810.953125 204.5 810.789062 206.160156 C 810.625 207.820312 810.382812 209.46875 810.054688 211.101562 C 809.730469 212.738281 809.324219 214.355469 808.839844 215.949219 C 808.355469 217.546875 807.796875 219.117188 807.15625 220.65625 C 806.519531 222.199219 805.808594 223.703125 805.019531 225.175781 C 804.234375 226.644531 803.378906 228.074219 802.453125 229.460938 C 801.523438 230.847656 800.53125 232.1875 799.472656 233.476562 C 798.417969 234.765625 797.296875 236 796.117188 237.179688 C 794.9375 238.359375 793.703125 239.476562 792.414062 240.535156 C 791.125 241.59375 789.789062 242.585938 788.398438 243.511719 C 787.011719 244.4375 785.585938 245.296875 784.113281 246.082031 C 782.640625 246.867188 781.136719 247.582031 779.59375 248.21875 C 778.054688 248.855469 776.484375 249.417969 774.890625 249.902344 C 773.292969 250.386719 771.675781 250.792969 770.042969 251.117188 C 768.40625 251.441406 766.757812 251.6875 765.097656 251.851562 C 763.4375 252.015625 761.773438 252.09375 760.105469 252.09375 C 758.4375 252.09375 756.773438 252.015625 755.113281 251.851562 C 753.453125 251.6875 751.804688 251.441406 750.171875 251.117188 C 748.535156 250.792969 746.917969 250.386719 745.324219 249.902344 C 743.726562 249.417969 742.15625 248.855469 740.617188 248.21875 C 739.074219 247.582031 737.570312 246.867188 736.097656 246.082031 C 734.628906 245.296875 733.199219 244.4375 731.8125 243.511719 C 730.425781 242.585938 729.085938 241.59375 727.796875 240.535156 C 726.507812 239.476562 725.273438 238.359375 724.09375 237.179688 C 722.914062 236 721.796875 234.765625 720.738281 233.476562 C 719.679688 232.1875 718.6875 230.847656 717.761719 229.460938 C 716.832031 228.074219 715.976562 226.644531 715.191406 225.175781 C 714.40625 223.703125 713.691406 222.199219 713.054688 220.65625 C 712.417969 219.117188 711.855469 217.546875 711.371094 215.949219 C 710.886719 214.355469 710.480469 212.738281 710.15625 211.101562 C 709.832031 209.46875 709.585938 207.820312 709.421875 206.160156 C 709.257812 204.5 709.179688 202.835938 709.175781 201.167969 C 709.179688 199.5 709.257812 197.835938 709.421875 196.175781 C 709.585938 194.515625 709.832031 192.867188 710.15625 191.230469 C 710.480469 189.59375 710.886719 187.980469 711.371094 186.382812 C 711.855469 184.789062 712.417969 183.21875 713.054688 181.675781 C 713.691406 180.136719 714.40625 178.628906 715.191406 177.160156 C 715.976562 175.6875 716.832031 174.257812 717.761719 172.871094 C 718.6875 171.484375 719.679688 170.148438 720.738281 168.859375 C 721.796875 167.570312 722.914062 166.335938 724.09375 165.15625 C 725.273438 163.976562 726.507812 162.855469 727.796875 161.800781 C 729.085938 160.742188 730.425781 159.75 731.8125 158.820312 C 733.199219 157.894531 734.628906 157.039062 736.097656 156.253906 C 737.570312 155.464844 739.074219 154.753906 740.617188 154.117188 C 742.15625 153.476562 743.726562 152.914062 745.324219 152.433594 C 746.917969 151.949219 748.535156 151.542969 750.171875 151.21875 C 751.804688 150.890625 753.453125 150.648438 755.113281 150.484375 C 756.773438 150.320312 758.4375 150.238281 760.105469 150.238281 C 761.773438 150.238281 763.4375 150.320312 765.097656 150.484375 C 766.757812 150.648438 768.40625 150.890625 770.042969 151.21875 C 771.675781 151.542969 773.292969 151.949219 774.890625 152.433594 C 776.484375 152.914062 778.054688 153.476562 779.59375 154.117188 C 781.136719 154.753906 782.640625 155.464844 784.113281 156.253906 C 785.585938 157.039062 787.011719 157.894531 788.398438 158.820312 C 789.789062 159.75 791.125 160.742188 792.414062 161.800781 C 793.703125 162.855469 794.9375 163.976562 796.117188 165.15625 C 797.296875 166.335938 798.417969 167.570312 799.472656 168.859375 C 800.53125 170.148438 801.523438 171.484375 802.453125 172.871094 C 803.378906 174.257812 804.234375 175.6875 805.019531 177.160156 C 805.808594 178.628906 806.519531 180.136719 807.15625 181.675781 C 807.796875 183.21875 808.355469 184.789062 808.839844 186.382812 C 809.324219 187.980469 809.730469 189.59375 810.054688 191.230469 C 810.382812 192.867188 810.625 194.515625 810.789062 196.175781 C 810.953125 197.835938 811.035156 199.5 811.035156 201.167969 Z M 811.035156 201.167969 "/></g></svg>