<svg xmlns="http://www.w3.org/2000/svg" xmlns:xlink="http://www.w3.org/1999/xlink" width="1280" zoomAndPan="magnify" viewBox="0 0 960 959.999988" height="1280" preserveAspectRatio="xMidYMid meet" version="1.2"><defs><clipPath id="849787a730"><path d="M 28.460938 28.460938 L 931.460938 28.460938 L 931.460938 931.460938 L 28.460938 931.460938 Z M 28.460938 28.460938 "/></clipPath></defs><g id="ba5b0b9895"><g clip-rule="nonzero" clip-path="url(#849787a730)"><path style=" stroke:none;fill-rule:evenodd;fill:#ffffff;fill-opacity:1;" d="M 479.960938 931.460938 C 729.320312 931.460938 931.460938 729.320312 931.460938 479.960938 C 931.460938 230.605469 729.320312 28.460938 479.960938 28.460938 C 230.605469 28.460938 28.460938 230.605469 28.460938 479.960938 C 28.460938 729.320312 230.605469 931.460938 479.960938 931.460938 Z M 274.898438 287.875 L 479.960938 451.925781 L 685.023438 287.878906 L 690.945312 282.941406 L 268.976562 282.941406 Z M 712.882812 321.652344 L 720.761719 315.089844 L 720.761719 655.089844 C 720.761719 667.175781 710.960938 676.980469 698.871094 676.980469 L 261.050781 676.980469 C 248.960938 676.980469 239.160156 667.175781 239.160156 655.089844 L 239.160156 315.089844 L 247.039062 321.652344 L 247.378906 321.925781 L 466.289062 497.054688 C 474.28125 503.453125 485.640625 503.453125 493.636719 497.054688 L 712.546875 321.925781 Z M 712.882812 321.652344 "/></g></g></svg>